<?xml version="1.0" encoding="utf-8"?>
<!-- Generator: Adobe Illustrator 26.0.2, SVG Export Plug-In . SVG Version: 6.00 Build 0)  -->
<svg version="1.1" id="katman_1" xmlns="http://www.w3.org/2000/svg" xmlns:xlink="http://www.w3.org/1999/xlink" x="0px" y="0px"
	 viewBox="0 0 439.4 117.17" style="enable-background:new 0 0 439.4 117.17;" xml:space="preserve">
<style type="text/css">
	.st0{clip-path:url(#SVGID_00000180359825542447717710000007676905602274458277_);fill:#1D1D1B;}
	.st1{clip-path:url(#SVGID_00000180359825542447717710000007676905602274458277_);fill:#1AA852;}
	.st2{clip-path:url(#SVGID_00000180359825542447717710000007676905602274458277_);fill:#FFFFFF;}
	.st3{clip-path:url(#SVGID_00000180359825542447717710000007676905602274458277_);fill:none;stroke:#FFFFFF;stroke-miterlimit:10;}
	.st4{clip-path:url(#SVGID_00000180359825542447717710000007676905602274458277_);}
	.st5{fill:#777777;}
	
		.st6{clip-path:url(#SVGID_00000180359825542447717710000007676905602274458277_);fill:none;stroke:#1D1D1B;stroke-width:2;stroke-miterlimit:10;}
</style>
<g>
	<defs>
		<rect id="SVGID_1_" y="0" width="439.4" height="117.17"/>
	</defs>
	<clipPath id="SVGID_00000119104354206982562450000007406123117447553673_">
		<use xlink:href="#SVGID_1_"  style="overflow:visible;"/>
	</clipPath>
	<path style="clip-path:url(#SVGID_00000119104354206982562450000007406123117447553673_);fill:#1D1D1B;" d="M68.85,5.24
		C56.94-1.48,37.6-3.67,21.36,10.57l18.48,11.54c6.29-3.4,12.87-2.39,16.9,0.96c8.77,7.3,6.57,21.14,5.13,27.51
		c-3.5,15.3-16.46,24.02-26.06,19.33c0,0-5.72-2.78-7.98-9.56h-0.92l-3.1,8.08l-7.73-2.97l1.96-5.11h-3.13L9.55,74.3
		c6.29,10.79,18.81,14.74,18.81,14.74c22.29,7.11,50.27-9.49,55.95-36.52C86.68,41.3,89.66,16.96,68.85,5.24"/>
	<path style="clip-path:url(#SVGID_00000119104354206982562450000007406123117447553673_);fill:#1D1D1B;" d="M99.61,13.41
		l-2.13,11.03h-6.76l-2.84,18.14h5.87l-4.09,24.54c0,0-1.78,13.16,1.78,16.36c3.56,3.2,8.18,7.68,16.71,7.22
		c8.54-0.46,11.74-2.95,11.74-2.95l2.13-16.55c0,0-11.74,1.97-10.67-3.36c1.07-5.33,4.98-24.89,4.98-24.89h12.45l3.91-18.14
		l-12.8-0.36l3.2-17.43L99.61,13.41z"/>
	<path style="clip-path:url(#SVGID_00000119104354206982562450000007406123117447553673_);fill:#1D1D1B;" d="M164.33,23.37
		c-33.78-1.78-38.04,30.58-38.04,30.58s-6.76,38.41,29.87,36.73c28.88-1.31,33.07-28.55,34.14-32.11
		C191.36,55.01,195.24,24.99,164.33,23.37 M167.32,58.82c-0.61,1.53-4.14,13.45-12.05,12.49c-10.03-1.21-4.8-17.99-4.8-17.99
		s4.02-14.21,12.97-11.61C171.63,44.1,167.93,57.3,167.32,58.82"/>
	<polygon style="clip-path:url(#SVGID_00000119104354206982562450000007406123117447553673_);fill:#1D1D1B;" points="191.04,24.79 
		214.83,24.79 218.39,58.57 233.68,24.79 259.29,24.79 225.16,88.45 202.39,88.45 	"/>
	<polygon style="clip-path:url(#SVGID_00000119104354206982562450000007406123117447553673_);fill:#1D1D1B;" points="284.18,24.79 
		272.09,88.45 249.33,88.45 262.49,24.79 	"/>
	<path style="clip-path:url(#SVGID_00000119104354206982562450000007406123117447553673_);fill:#1D1D1B;" d="M312.63,88.45h22.4
		l7.47-39.83c0,0,4.62-18.14-8.54-23.83c-13.16-5.69-25.96,4.62-25.96,4.62v-4.62h-19.92l-11.74,63.66h23.47l5.69-34.14
		c0,0,1.42-15.46,11.74-12.9c3.84,0.95,1.95,9.32,0.83,17.52C316.23,72.6,312.63,88.45,312.63,88.45"/>
	<path style="clip-path:url(#SVGID_00000119104354206982562450000007406123117447553673_);fill:#1D1D1B;" d="M377.12,88.45h22.4
		l7.47-39.83c0,0,4.62-18.14-8.54-23.83c-13.16-5.69-25.96,4.62-25.96,4.62v-4.62h-19.92l-11.74,63.66h23.47l5.69-34.14
		c0,0,1.42-15.46,11.74-12.9c3.84,0.95,1.95,9.32,0.83,17.52C380.72,72.6,377.12,88.45,377.12,88.45"/>
	
		<rect x="10.58" y="23.57" transform="matrix(0.3585 -0.9335 0.9335 0.3585 -15.4227 27.2271)" style="clip-path:url(#SVGID_00000119104354206982562450000007406123117447553673_);fill:#1AA852;" width="3.05" height="2.54"/>
	
		<rect x="0.41" y="29.97" transform="matrix(0.3584 -0.9336 0.9336 0.3584 -28.1271 24.0357)" style="clip-path:url(#SVGID_00000119104354206982562450000007406123117447553673_);fill:#1AA852;" width="6.02" height="5.02"/>
	
		<rect x="11.11" y="31.17" transform="matrix(0.3584 -0.9336 0.9336 0.3584 -22.2943 33.8804)" style="clip-path:url(#SVGID_00000119104354206982562450000007406123117447553673_);fill:#1AA852;" width="4.78" height="3.99"/>
	
		<rect x="18.14" y="37.36" transform="matrix(0.3583 -0.9336 0.9336 0.3583 -23.584 44.6525)" style="clip-path:url(#SVGID_00000119104354206982562450000007406123117447553673_);fill:#1AA852;" width="5.1" height="4.25"/>
	
		<rect x="22.57" y="23.1" transform="matrix(0.3584 -0.9336 0.9336 0.3584 -7.3847 39.1872)" style="clip-path:url(#SVGID_00000119104354206982562450000007406123117447553673_);fill:#1AA852;" width="4.48" height="3.74"/>
	
		<rect x="28.41" y="23.84" transform="matrix(0.3583 -0.9336 0.9336 0.3583 -4.6899 48.9147)" style="clip-path:url(#SVGID_00000119104354206982562450000007406123117447553673_);fill:#1D1D1B;" width="9.66" height="8.05"/>
	
		<rect x="23.77" y="34.96" transform="matrix(0.3584 -0.9336 0.9336 0.3584 -17.6607 47.5187)" style="clip-path:url(#SVGID_00000119104354206982562450000007406123117447553673_);fill:#1D1D1B;" width="3.95" height="3.29"/>
	
		<rect x="17.42" y="16.98" transform="matrix(0.3584 -0.9336 0.9336 0.3584 -4.9434 30.0512)" style="clip-path:url(#SVGID_00000119104354206982562450000007406123117447553673_);fill:#1D1D1B;" width="3.95" height="3.29"/>
	
		<rect x="17.45" y="25.9" transform="matrix(0.3583 -0.9336 0.9336 0.3583 -13.2856 36.1304)" style="clip-path:url(#SVGID_00000119104354206982562450000007406123117447553673_);fill:#1D1D1B;" width="4.39" height="3.66"/>
	
		<rect x="1.24" y="38.43" transform="matrix(0.3584 -0.9336 0.9336 0.3584 -35.4933 33.2817)" style="clip-path:url(#SVGID_00000119104354206982562450000007406123117447553673_);fill:#1D1D1B;" width="10.44" height="8.06"/>
	
		<rect x="4.83" y="51.07" transform="matrix(0.3584 -0.9336 0.9336 0.3584 -44.9885 44.7412)" style="clip-path:url(#SVGID_00000119104354206982562450000007406123117447553673_);fill:#1AA852;" width="10.44" height="8.06"/>
	<polygon style="clip-path:url(#SVGID_00000119104354206982562450000007406123117447553673_);fill:#1AA852;" points="31.54,46.62 
		27.88,56.14 24.06,54.68 24.66,53.1 20.55,51.52 23.59,43.58 	"/>
	<polygon style="clip-path:url(#SVGID_00000119104354206982562450000007406123117447553673_);fill:#FFFFFF;" points="24.06,54.68 
		19.94,53.1 20.55,51.52 	"/>
	
		<rect x="15.03" y="52.81" transform="matrix(0.3583 -0.9336 0.9336 0.3583 -40.2101 53.8642)" style="clip-path:url(#SVGID_00000119104354206982562450000007406123117447553673_);fill:#1D1D1B;" width="8.1" height="6.75"/>
	
		<rect x="12.4" y="43.11" transform="matrix(0.3584 -0.9336 0.9336 0.3584 -32.6575 43.1653)" style="clip-path:url(#SVGID_00000119104354206982562450000007406123117447553673_);fill:#1D1D1B;" width="5.35" height="4.46"/>
	
		<rect x="12.4" y="43.11" transform="matrix(0.3584 -0.9336 0.9336 0.3584 -32.6575 43.1653)" style="clip-path:url(#SVGID_00000119104354206982562450000007406123117447553673_);fill:none;stroke:#FFFFFF;stroke-miterlimit:10;" width="5.35" height="4.46"/>
	<g style="clip-path:url(#SVGID_00000119104354206982562450000007406123117447553673_);">
		<path class="st5" d="M193.09,105.96c0,4.38-2.66,6.7-5.91,6.7c-3.36,0-5.72-2.61-5.72-6.46c0-4.04,2.51-6.68,5.91-6.68
			C190.85,99.52,193.09,102.18,193.09,105.96z M183.22,106.17c0,2.72,1.47,5.15,4.06,5.15c2.6,0,4.08-2.4,4.08-5.29
			c0-2.53-1.32-5.17-4.06-5.17C184.58,100.86,183.22,103.37,183.22,106.17z"/>
		<path class="st5" d="M197.49,100.69v2.62h2.38v1.26h-2.38v4.93c0,1.13,0.32,1.77,1.25,1.77c0.43,0,0.75-0.06,0.96-0.11l0.08,1.25
			c-0.32,0.13-0.83,0.23-1.47,0.23c-0.77,0-1.4-0.25-1.79-0.7c-0.47-0.49-0.64-1.3-0.64-2.38v-4.98h-1.42v-1.26h1.42v-2.19
			L197.49,100.69z"/>
		<path class="st5" d="M209.9,107.81c0,3.38-2.34,4.85-4.55,4.85c-2.47,0-4.38-1.81-4.38-4.7c0-3.06,2-4.85,4.53-4.85
			C208.12,103.11,209.9,105.02,209.9,107.81z M202.65,107.9c0,2,1.15,3.51,2.77,3.51c1.59,0,2.77-1.49,2.77-3.55
			c0-1.55-0.77-3.51-2.74-3.51S202.65,106.17,202.65,107.9z"/>
		<path class="st5" d="M212,105.79c0-0.94-0.02-1.72-0.08-2.47h1.45l0.08,1.47h0.06c0.51-0.87,1.36-1.68,2.87-1.68
			c1.25,0,2.19,0.75,2.59,1.83H219c0.28-0.51,0.64-0.91,1.02-1.19c0.55-0.42,1.15-0.64,2.02-0.64c1.21,0,3,0.79,3,3.96v5.38h-1.62
			v-5.17c0-1.75-0.64-2.81-1.98-2.81c-0.94,0-1.68,0.7-1.96,1.51c-0.08,0.23-0.13,0.53-0.13,0.83v5.64h-1.62v-5.47
			c0-1.45-0.64-2.51-1.91-2.51c-1.04,0-1.79,0.83-2.06,1.66c-0.09,0.25-0.13,0.53-0.13,0.81v5.51H212V105.79z"/>
		<path class="st5" d="M236.01,107.81c0,3.38-2.34,4.85-4.55,4.85c-2.47,0-4.38-1.81-4.38-4.7c0-3.06,2-4.85,4.53-4.85
			C234.24,103.11,236.01,105.02,236.01,107.81z M228.76,107.9c0,2,1.15,3.51,2.77,3.51c1.58,0,2.77-1.49,2.77-3.55
			c0-1.55-0.77-3.51-2.74-3.51C229.61,104.36,228.76,106.17,228.76,107.9z"/>
		<path class="st5" d="M238.03,112.45c0.04-0.62,0.08-1.55,0.08-2.36V99.05h1.64v5.74h0.04c0.58-1.02,1.64-1.68,3.11-1.68
			c2.27,0,3.87,1.89,3.85,4.66c0,3.26-2.06,4.89-4.1,4.89c-1.32,0-2.38-0.51-3.06-1.72h-0.06l-0.08,1.51H238.03z M239.75,108.79
			c0,0.21,0.04,0.42,0.08,0.6c0.32,1.15,1.28,1.94,2.49,1.94c1.74,0,2.77-1.42,2.77-3.51c0-1.83-0.94-3.4-2.72-3.4
			c-1.13,0-2.19,0.77-2.53,2.04c-0.04,0.19-0.09,0.42-0.09,0.68V108.79z"/>
		<path class="st5" d="M250.7,100.75c0.02,0.57-0.4,1.02-1.06,1.02c-0.58,0-1-0.45-1-1.02c0-0.59,0.43-1.04,1.04-1.04
			C250.3,99.71,250.7,100.17,250.7,100.75z M248.85,112.45v-9.14h1.66v9.14H248.85z"/>
		<path class="st5" d="M253.27,99.05h1.66v13.4h-1.66V99.05z"/>
		<path class="st5" d="M263.43,99.73v5.32h6.15v-5.32h1.66v12.72h-1.66v-5.96h-6.15v5.96h-1.64V99.73H263.43z"/>
		<path class="st5" d="M276.06,100.75c0.02,0.57-0.4,1.02-1.06,1.02c-0.58,0-1-0.45-1-1.02c0-0.59,0.43-1.04,1.04-1.04
			C275.66,99.71,276.06,100.17,276.06,100.75z M274.21,112.45v-9.14h1.66v9.14H274.21z"/>
		<path class="st5" d="M277.59,111.49l4.13-5.38c0.4-0.49,0.77-0.92,1.19-1.42v-0.04h-4.95v-1.34h6.97l-0.02,1.04l-4.08,5.3
			c-0.38,0.51-0.75,0.96-1.17,1.43v0.04h5.34v1.32h-7.42V111.49z"/>
		<path class="st5" d="M286.71,105.79c0-0.94-0.02-1.72-0.08-2.47h1.45l0.08,1.47h0.06c0.51-0.87,1.36-1.68,2.87-1.68
			c1.25,0,2.19,0.75,2.59,1.83h0.04c0.28-0.51,0.64-0.91,1.02-1.19c0.55-0.42,1.15-0.64,2.02-0.64c1.21,0,3,0.79,3,3.96v5.38h-1.62
			v-5.17c0-1.75-0.64-2.81-1.98-2.81c-0.94,0-1.68,0.7-1.96,1.51c-0.08,0.23-0.13,0.53-0.13,0.83v5.64h-1.62v-5.47
			c0-1.45-0.64-2.51-1.91-2.51c-1.04,0-1.79,0.83-2.06,1.66c-0.09,0.25-0.13,0.53-0.13,0.81v5.51h-1.62V105.79z"/>
		<path class="st5" d="M303.38,108.19c0.04,2.25,1.47,3.17,3.13,3.17c1.19,0,1.91-0.21,2.53-0.47l0.28,1.19
			c-0.58,0.26-1.58,0.57-3.04,0.57c-2.81,0-4.49-1.85-4.49-4.61s1.62-4.93,4.29-4.93c2.98,0,3.78,2.62,3.78,4.3
			c0,0.34-0.04,0.6-0.06,0.77H303.38z M308.25,107c0.02-1.06-0.43-2.7-2.3-2.7c-1.68,0-2.42,1.55-2.55,2.7H308.25z"/>
		<path class="st5" d="M313.91,100.69v2.62h2.38v1.26h-2.38v4.93c0,1.13,0.32,1.77,1.25,1.77c0.43,0,0.76-0.06,0.96-0.11l0.08,1.25
			c-0.32,0.13-0.83,0.23-1.47,0.23c-0.77,0-1.4-0.25-1.79-0.7c-0.47-0.49-0.64-1.3-0.64-2.38v-4.98h-1.42v-1.26h1.42v-2.19
			L313.91,100.69z"/>
		<path class="st5" d="M322.22,99.88c0.79-0.13,1.83-0.25,3.15-0.25c1.62,0,2.81,0.38,3.57,1.06c0.7,0.6,1.11,1.53,1.11,2.66
			c0,1.15-0.34,2.06-0.98,2.72c-0.87,0.92-2.28,1.4-3.89,1.4c-0.49,0-0.94-0.02-1.32-0.11v5.1h-1.64V99.88z M323.86,106.02
			c0.36,0.09,0.81,0.13,1.36,0.13c1.98,0,3.19-0.96,3.19-2.72c0-1.68-1.19-2.49-3-2.49c-0.72,0-1.26,0.06-1.55,0.13V106.02z"/>
		<path class="st5" d="M332.12,99.05h1.66v13.4h-1.66V99.05z"/>
		<path class="st5" d="M341.63,112.45l-0.13-1.15h-0.06c-0.51,0.72-1.49,1.36-2.79,1.36c-1.85,0-2.79-1.3-2.79-2.62
			c0-2.21,1.96-3.42,5.49-3.4v-0.19c0-0.75-0.21-2.11-2.08-2.11c-0.85,0-1.74,0.26-2.38,0.68l-0.38-1.09c0.75-0.49,1.85-0.81,3-0.81
			c2.79,0,3.47,1.91,3.47,3.74v3.42c0,0.79,0.04,1.57,0.15,2.19H341.63z M341.38,107.79c-1.81-0.04-3.87,0.28-3.87,2.06
			c0,1.08,0.72,1.58,1.57,1.58c1.19,0,1.94-0.75,2.21-1.53c0.06-0.17,0.09-0.36,0.09-0.53V107.79z"/>
		<path class="st5" d="M347.62,100.69v2.62h2.38v1.26h-2.38v4.93c0,1.13,0.32,1.77,1.25,1.77c0.43,0,0.76-0.06,0.96-0.11l0.08,1.25
			c-0.32,0.13-0.83,0.23-1.47,0.23c-0.77,0-1.4-0.25-1.79-0.7c-0.47-0.49-0.64-1.3-0.64-2.38v-4.98h-1.42v-1.26h1.42v-2.19
			L347.62,100.69z"/>
		<path class="st5" d="M352.04,112.45v-7.87h-1.28v-1.26h1.28v-0.43c0-1.28,0.28-2.45,1.06-3.19c0.62-0.6,1.45-0.85,2.23-0.85
			c0.58,0,1.09,0.13,1.42,0.26l-0.23,1.28c-0.25-0.11-0.58-0.21-1.06-0.21c-1.42,0-1.77,1.25-1.77,2.64v0.49h2.21v1.26h-2.21v7.87
			H352.04z"/>
		<path class="st5" d="M365.42,107.81c0,3.38-2.34,4.85-4.55,4.85c-2.47,0-4.38-1.81-4.38-4.7c0-3.06,2-4.85,4.53-4.85
			C363.64,103.11,365.42,105.02,365.42,107.81z M358.17,107.9c0,2,1.15,3.51,2.77,3.51c1.58,0,2.77-1.49,2.77-3.55
			c0-1.55-0.77-3.51-2.74-3.51C359.02,104.36,358.17,106.17,358.17,107.9z"/>
		<path class="st5" d="M367.52,106.17c0-1.08-0.02-2-0.08-2.85h1.45l0.06,1.79h0.08c0.42-1.23,1.42-2,2.53-2
			c0.19,0,0.32,0.02,0.47,0.06v1.57c-0.17-0.04-0.34-0.06-0.57-0.06c-1.17,0-2,0.89-2.23,2.13c-0.04,0.23-0.08,0.49-0.08,0.77v4.87
			h-1.64V106.17z"/>
		<path class="st5" d="M373.75,105.79c0-0.94-0.02-1.72-0.08-2.47h1.45l0.08,1.47h0.06c0.51-0.87,1.36-1.68,2.87-1.68
			c1.25,0,2.19,0.75,2.59,1.83h0.04c0.28-0.51,0.64-0.91,1.02-1.19c0.55-0.42,1.15-0.64,2.02-0.64c1.21,0,3,0.79,3,3.96v5.38h-1.62
			v-5.17c0-1.75-0.64-2.81-1.98-2.81c-0.94,0-1.68,0.7-1.96,1.51c-0.08,0.23-0.13,0.53-0.13,0.83v5.64h-1.62v-5.47
			c0-1.45-0.64-2.51-1.91-2.51c-1.04,0-1.79,0.83-2.06,1.66c-0.09,0.25-0.13,0.53-0.13,0.81v5.51h-1.62V105.79z"/>
		<path class="st5" d="M397.14,109.96c0,0.94,0.02,1.77,0.08,2.49h-1.47l-0.09-1.49h-0.04c-0.43,0.74-1.4,1.7-3.02,1.7
			c-1.43,0-3.15-0.79-3.15-4v-5.34h1.66v5.06c0,1.74,0.53,2.91,2.04,2.91c1.11,0,1.89-0.77,2.19-1.51c0.09-0.25,0.15-0.55,0.15-0.85
			v-5.61h1.66V109.96z"/>
	</g>
	<path style="clip-path:url(#SVGID_00000119104354206982562450000007406123117447553673_);fill:#1D1D1B;" d="M418.45,30.21V15.16
		h6.4c1.61,0,2.78,0.14,3.51,0.41c0.73,0.27,1.31,0.75,1.75,1.44c0.44,0.69,0.66,1.48,0.66,2.37c0,1.13-0.33,2.06-1,2.8
		c-0.66,0.74-1.66,1.2-2.98,1.39c0.66,0.38,1.2,0.8,1.63,1.26c0.43,0.46,1,1.27,1.73,2.44l1.84,2.94h-3.64l-2.2-3.28
		c-0.78-1.17-1.31-1.91-1.6-2.21c-0.29-0.31-0.59-0.51-0.91-0.63c-0.32-0.11-0.83-0.17-1.53-0.17h-0.62v6.28H418.45z M421.49,21.53
		h2.25c1.46,0,2.37-0.06,2.73-0.18c0.36-0.12,0.65-0.33,0.85-0.64c0.21-0.3,0.31-0.68,0.31-1.13c0-0.51-0.14-0.92-0.41-1.23
		c-0.27-0.31-0.65-0.51-1.14-0.59c-0.25-0.03-0.99-0.05-2.22-0.05h-2.37V21.53z"/>
	
		<circle style="clip-path:url(#SVGID_00000119104354206982562450000007406123117447553673_);fill:none;stroke:#1D1D1B;stroke-width:2;stroke-miterlimit:10;" cx="424.05" cy="22.69" r="14.36"/>
</g>
</svg>
